<svg xmlns="http://www.w3.org/2000/svg" width="1080" height="1080" viewBox="0 0 1080 1080" role="img" aria-label="Festival greeting celebration marketing template preview">
  <defs>
    <radialGradient id="festivalGlow" cx="50%" cy="42%" r="68%">
      <stop offset="0" stop-color="#fff1b8" stop-opacity=".85"/>
      <stop offset=".45" stop-color="#da6a26" stop-opacity=".22"/>
      <stop offset="1" stop-color="#2b1232" stop-opacity=".92"/>
    </radialGradient>
    <filter id="softText" x="-20%" y="-20%" width="140%" height="140%">
      <feDropShadow dx="0" dy="12" stdDeviation="10" flood-color="#2b1232" flood-opacity=".35"/>
    </filter>
  </defs>
  <image href="/marketing-studio/templates/festival-greeting-celebration-01-photo.jpg" x="0" y="0" width="1080" height="1080" preserveAspectRatio="xMidYMid slice"/>
  <rect width="1080" height="1080" fill="url(#festivalGlow)"/>
  <path d="M92 138c210-74 392-74 596 0" fill="none" stroke="#ffd98a" stroke-width="4" opacity=".8"/>
  <g fill="#ffd98a" opacity=".95">
    <circle cx="190" cy="129" r="9"/><circle cx="286" cy="108" r="7"/><circle cx="386" cy="104" r="9"/><circle cx="492" cy="111" r="7"/><circle cx="604" cy="134" r="9"/>
  </g>
  <rect x="118" y="742" width="844" height="174" rx="38" fill="#fff7e8" opacity=".92"/>
  <text x="540" y="360" text-anchor="middle" fill="#fff7e8" font-family="Georgia, 'Times New Roman', serif" font-size="86" font-weight="700" filter="url(#softText)">Celebrate</text>
  <text x="540" y="444" text-anchor="middle" fill="#ffd98a" font-family="Georgia, 'Times New Roman', serif" font-size="72" font-style="italic">Together</text>
  <text x="540" y="526" text-anchor="middle" fill="#fff7e8" font-family="Inter, Arial, sans-serif" font-size="28" font-weight="800">Warm wishes from our family to yours</text>
  <rect x="430" y="578" width="220" height="58" rx="29" fill="#f97316"/>
  <text x="540" y="615" text-anchor="middle" fill="#ffffff" font-family="Inter, Arial, sans-serif" font-size="22" font-weight="900">Festive Greetings</text>
  <rect x="154" y="786" width="82" height="82" rx="20" fill="#3a173e"/>
  <text x="260" y="832" fill="#2f1735" font-family="Inter, Arial, sans-serif" font-size="30" font-weight="900">Your Business</text>
  <text x="260" y="868" fill="#8c5b24" font-family="Inter, Arial, sans-serif" font-size="20" font-weight="800">+91 90000 00000</text>
</svg>
